<svg id="Layer_1" data-name="Layer 1" xmlns="http://www.w3.org/2000/svg" xmlns:xlink="http://www.w3.org/1999/xlink" viewBox="0 0 193 56.06"><defs><style>.cls-1{fill:none;}.cls-2{clip-path:url(#clip-path);}.cls-3{fill:#426cb4;}</style><clipPath id="clip-path" transform="translate(0 -128.94)"><rect class="cls-1" y="128.94" width="192.96" height="56"/></clipPath></defs><title>logo_text</title><g class="cls-2"><path class="cls-3" d="M193,155.93v-16.2a10.79,10.79,0,0,0-10.76-10.79H169.15a5.26,5.26,0,0,1,2.33,2.11v33.56a5.26,5.26,0,0,1-2.33,2.11h13.09A10.79,10.79,0,0,0,193,155.93m-14.37,3.58V136.14h3.61a3.6,3.6,0,0,1,3.58,3.59v16.2a3.6,3.6,0,0,1-3.58,3.58Zm-13.47,5.1v-8.18a10.77,10.77,0,0,0-1.42-5.36,10.65,10.65,0,0,0-3.9-3.93l-8.16-4.83a3.4,3.4,0,0,1-1.79-3.11v-3.06h4.5a3.44,3.44,0,0,1,2.53,1.05,3.5,3.5,0,0,1,1.05,2.54v1.8h7.19v-1.8a10.81,10.81,0,0,0-10.77-10.79h-14a5.26,5.26,0,0,1,2.33,2.11v8.15a10.78,10.78,0,0,0,1.41,5.38,10.58,10.58,0,0,0,3.87,3.93l8.19,4.84a3.34,3.34,0,0,1,1.76,3.08v3.08H153.5a3.47,3.47,0,0,1-2.55-1,3.43,3.43,0,0,1-1.06-2.53v-1.8h-7.15v1.8a10.75,10.75,0,0,0,10.76,10.79h14A5.15,5.15,0,0,1,165.16,164.61Zm-38.24-35.67H113.83a5.23,5.23,0,0,1,2.32,2.11v46.86a22,22,0,0,0,4,6.81,18.13,18.13,0,0,1-.9-10.35,14.89,14.89,0,0,1,4-7.65h3.69a10.81,10.81,0,0,0,10.76-10.79V155a10.47,10.47,0,0,0-2.76-7.2,10.48,10.48,0,0,0,2.76-7.21v-.89a10.81,10.81,0,0,0-10.76-10.79ZM130.49,155v.9a3.58,3.58,0,0,1-3.57,3.58h-3.61v-8.09h3.61a3.44,3.44,0,0,1,2.52,1.05A3.49,3.49,0,0,1,130.49,155Zm0-15.3v.89a3.48,3.48,0,0,1-1.05,2.56,3.41,3.41,0,0,1-2.52,1.06h-3.61v-8.1h3.61a3.44,3.44,0,0,1,2.52,1.05A3.5,3.5,0,0,1,130.49,139.73ZM112,128.94H101.25a6.69,6.69,0,0,1,1.37.87l-5.57,10.9-5.3-10.82a5.49,5.49,0,0,1,1.43-.95H82.41a8.82,8.82,0,0,1,1.27.79l9.71,19.84v15.06a5.17,5.17,0,0,1-2.27,2.09h11.71a5.44,5.44,0,0,1-2.26-2.06V149.59l10.13-19.81A7.1,7.1,0,0,1,112,128.94ZM54.67,166.72H66.46a5.23,5.23,0,0,1-2.32-2.11V151.44l7.4,14.38a6.47,6.47,0,0,1-1.37.9h11a5.3,5.3,0,0,1-1.87-1.45L71.8,150.62a10.53,10.53,0,0,0,4.85-3.9,10.64,10.64,0,0,0,1.87-6.1v-.89a10.81,10.81,0,0,0-10.77-10.79H54.67A5.29,5.29,0,0,1,57,131.05v33.56A5.29,5.29,0,0,1,54.67,166.72Zm9.47-22.48v-8.1h3.61a3.44,3.44,0,0,1,2.53,1.05,3.5,3.5,0,0,1,1,2.54v.89a3.48,3.48,0,0,1-1,2.56,3.41,3.41,0,0,1-2.53,1.06Zm-12-15.3H40.32a5,5,0,0,1,2.29,2.11v24.88A3.58,3.58,0,0,1,39,159.51h-.89a3.6,3.6,0,0,1-3.61-3.58V131.05a5.23,5.23,0,0,1,2.32-2.11H25.06a5.23,5.23,0,0,1,2.32,2.11v24.88a10.81,10.81,0,0,0,10.76,10.79H39A10.81,10.81,0,0,0,49.8,155.93V131.05A5.21,5.21,0,0,1,52.11,128.94ZM20.27,151.47v-7.21H9.48v-8.09H20.85a5.22,5.22,0,0,1,2.1,2.32V129H0a5.46,5.46,0,0,1,2.32,2.14v47.09a21.72,21.72,0,0,0,4,6.81,18.38,18.38,0,0,1-.9-10.42,15.09,15.09,0,0,1,4-7.67V151.47Z" transform="translate(0 -128.94)"/></g></svg>