<svg id="Layer_1" data-name="Layer 1" xmlns="http://www.w3.org/2000/svg" xmlns:xlink="http://www.w3.org/1999/xlink" viewBox="0 0 108.86 112.12"><defs><style>.cls-1{fill:none;}.cls-2{clip-path:url(#clip-path);}</style><clipPath id="clip-path" transform="translate(-42.07 0)"><rect class="cls-1" width="193" height="185"/></clipPath></defs><title>mascot</title><g class="cls-2"><path d="M136.27.71c-.26.39-.81,1.14-1.23,1.69-3.95,5.17-8.55,8.48-13.61,9.79-1.21.31-1.15.28-1.44.64A4.61,4.61,0,0,0,119,16a10.57,10.57,0,0,0,1.15,4.62c1.07,2.41,4.17,5.39,6.31,6.09a3.64,3.64,0,0,0,1.25.2c.61,0,.68,0,.95-.2A23.63,23.63,0,0,0,131.3,24a28.37,28.37,0,0,0,6.06-19.31A22.09,22.09,0,0,0,136.79,0a5.69,5.69,0,0,0-.52.71M48.9,1.07a26.08,26.08,0,0,0-.34,5.22A23.17,23.17,0,0,0,49,11.82a27.1,27.1,0,0,0,5.91,12.56,17.6,17.6,0,0,0,2.53,2.48,4.32,4.32,0,0,0,1.85,0,8.36,8.36,0,0,0,2.18-1.14,22.24,22.24,0,0,0,3.18-3.13,13.12,13.12,0,0,0,2.17-5,10.16,10.16,0,0,0,0-3,4.6,4.6,0,0,0-.92-1.76c-.32-.34-.37-.36-1.09-.54-5.61-1.33-10.91-5.35-15-11.4A7.17,7.17,0,0,0,49.11,0,5.15,5.15,0,0,0,48.9,1.07Z" transform="translate(-42.07 0)"/><path d="M115.29,86.74a29.11,29.11,0,0,0-3.67.59,8.82,8.82,0,0,0,.22,1.31c.25,1.28.69,3.86.84,5a2,2,0,0,0,.15.65,8,8,0,0,0,2.08-1.52,7.21,7.21,0,0,0,2-5l0-1.07h-.54c-.3,0-.81,0-1.16.08m-47.37.65a7.26,7.26,0,0,0,3,5.87,4.5,4.5,0,0,0,1.2.73,10.07,10.07,0,0,0,.18-1c.2-1.45.47-3.07.77-4.53a9.88,9.88,0,0,0,.22-1.35,21.42,21.42,0,0,0-4.46-.67l-.9,0Zm35.8-21.47a2.14,2.14,0,0,0-.71.26s.29.58.63,1.2A83.56,83.56,0,0,1,110.58,84c.21.74.39,1.36.4,1.36a8.17,8.17,0,0,0,1.13-.16,33.39,33.39,0,0,1,3.76-.45c.46,0,.9-.07,1-.09s.08-.16-.22-1.1a40.82,40.82,0,0,0-10.93-17,4.48,4.48,0,0,0-1.09-.85C104.51,65.72,104.12,65.81,103.72,65.92Zm-24.61.71A40.52,40.52,0,0,0,68.37,83.32l-.46,1.36.22,0a4.35,4.35,0,0,0,.57,0,33.76,33.76,0,0,1,3.84.45l1.32.21a2.19,2.19,0,0,0,.21-.6c.08-.33.38-1.32.66-2.2A83.18,83.18,0,0,1,81.2,67.41a13.12,13.12,0,0,0,.67-1.26s-1.63-.45-1.7-.45S79.67,66.12,79.11,66.63Zm18.62-2.27c-3.72.78-4.57.88-7,.76-1.67-.08-3.2-.22-4.43-.4l-.85-.11c-.36,0-3.53,5.73-5.15,9.31A80.53,80.53,0,0,0,74.8,91a78,78,0,0,0-1.32,9.6c-.12,1.32-.17,6.84-.07,8.42a28.6,28.6,0,0,0,.27,2.87l0,.24h5.42l.11-.21c.07-.12.38-.89.7-1.72,1.87-4.83,3.5-7.75,5.27-9.43a7.84,7.84,0,0,1,.85-.69l.36-.25H98l.45.33c2,1.46,3.88,4.51,6,9.93.31.83.63,1.62.69,1.77l.12.27h3c1.64,0,3,0,3-.06s0-.54.1-1.14a71.13,71.13,0,0,0,0-12.3,80.64,80.64,0,0,0-7.94-27.72C101.87,68,99.63,64,99.41,64,99.34,64,98.58,64.18,97.73,64.36ZM54.28,37.3a33.79,33.79,0,0,0-11.6,19.89,26.62,26.62,0,0,0-.6,5.5,28.64,28.64,0,0,0,.28,5.19C43.8,78.27,50.09,87,60.53,93a60.86,60.86,0,0,0,5.66,2.82c1.34.57,3.67,1.46,3.71,1.41s-.11-.13-.28-.26a8.9,8.9,0,0,1-3.2-5c-.1-.42-.2-.89-.23-1.08l0-.32-1-.51C57.24,85.89,51.82,80.54,49,74A27.59,27.59,0,0,1,47,61.13a30.5,30.5,0,0,1,8.36-18.25L56.2,42,56,41.32c-.34-1.06-.71-2.54-.91-3.54a7.32,7.32,0,0,0-.2-.94A4.71,4.71,0,0,0,54.28,37.3ZM130,35.45a28.73,28.73,0,0,1-.81,4.44l-.22.85.37.42a38,38,0,0,1,3.72,4.75A31,31,0,0,1,138,59.75,46.44,46.44,0,0,1,138,66c-.11,1-.43,3.29-.51,3.58s-.13.13-3.39-2.6c-1.84-1.54-3.36-2.76-3.37-2.72S132,89,132,89s2-1.26,3-1.94a52.38,52.38,0,0,0,6.68-5.78,66.87,66.87,0,0,0,6.71-7.8,40,40,0,0,0,2.54-3.68s-.09-.06-.23,0c-.85.14-8.49,1.28-8.51,1.27s.07-.56.18-1.21a38.53,38.53,0,0,0-.16-14.17,36.22,36.22,0,0,0-9.34-17.86,32.17,32.17,0,0,0-2.78-2.63S130,35.32,130,35.45Zm-19,11.23a2,2,0,0,1,.9,2.8c-.4.74-.37.72-6.33,2.78-3,1-5.42,1.86-5.42,1.85s8.24-6.93,8.68-7.22A2,2,0,0,1,111.08,46.68Zm-36.42-.17a3.24,3.24,0,0,1,.71.37c.4.26,8.72,7.19,8.69,7.23s-2.47-.83-5.45-1.86c-6-2.06-5.91-2-6.31-2.77A2.08,2.08,0,0,1,74.66,46.51Zm15-45.3A40.88,40.88,0,0,0,79.15,3.27a37.58,37.58,0,0,0-13,7.44l-.59.52.31.14a4.49,4.49,0,0,1,1.73,2.08,7.84,7.84,0,0,1,.32,4.38,14.39,14.39,0,0,1-2.06,5c-2,2.72-4.43,4.64-6.42,5.16a3.76,3.76,0,0,1-2.79-.26,1.35,1.35,0,0,0-.27-.19A14.53,14.53,0,0,0,56,29.9a39.4,39.4,0,0,0,0,5.21,28.35,28.35,0,0,0,1.27,6C60.85,52,71.14,60.4,84,63a42.91,42.91,0,0,0,17.34-.09c14-3,24.67-12.92,27.1-25.15a28.62,28.62,0,0,0,.29-8.77l-.13-1-.74,0a3.29,3.29,0,0,1-1.41-.16,10.34,10.34,0,0,1-4.68-3.19,14.39,14.39,0,0,1-2.28-2.88c-2.06-4.09-2.14-7.67-.2-9.8a4.16,4.16,0,0,0,.34-.42A24.37,24.37,0,0,0,116.49,9a35,35,0,0,0-6.17-3.75,39.89,39.89,0,0,0-14.94-4C94.54,1.17,90.44,1.16,89.71,1.21Z" transform="translate(-42.07 0)"/></g></svg>